HIERARCHY
ROOT Hips
{
	OFFSET 0.000000 71.427986 0.000000
	CHANNELS 6 Xposition Yposition Zposition Xrotation Yrotation Zrotation
	JOINT Pelvis
	{
		OFFSET 0.000000 0.000000 0.000000
		CHANNELS 3 Xrotation Yrotation Zrotation
		JOINT LeftUpLeg
		{
			OFFSET 6.797100 -2.508499 -1.318700
			CHANNELS 3 Xrotation Yrotation Zrotation
			JOINT LeftLeg
			{
				OFFSET 0.069008 -29.241863 0.690200
				CHANNELS 3 Xrotation Yrotation Zrotation
				JOINT LeftFoot
				{
					OFFSET -0.069008 -29.568123 -0.266800
					CHANNELS 3 Xrotation Yrotation Zrotation
					JOINT LeftToeBase
					{
						OFFSET 3.145500 -8.631000 16.059900
						CHANNELS 3 Xrotation Yrotation Zrotation
						End Site
						{
							OFFSET 0.000000 18.501587 0.000000
						}
					}
				}
			}
			JOINT Left_ShortSleeve
			{
				OFFSET 0.265923 -10.480953 1.153800
				CHANNELS 3 Xrotation Yrotation Zrotation
				End Site
				{
					OFFSET 1.725763 19.823879 0.000000
				}
			}
		}
		JOINT RightUpLeg
		{
			OFFSET -6.797100 -2.508499 -1.318700
			CHANNELS 3 Xrotation Yrotation Zrotation
			JOINT RightLeg
			{
				OFFSET -0.082453 -29.241932 0.688000
				CHANNELS 3 Xrotation Yrotation Zrotation
				JOINT RightFoot
				{
					OFFSET 0.082453 -29.568058 -0.264600
					CHANNELS 3 Xrotation Yrotation Zrotation
					JOINT RightToeBase
					{
						OFFSET -3.115300 -8.682800 16.113400
						CHANNELS 3 Xrotation Yrotation Zrotation
						End Site
						{
							OFFSET 0.000000 18.567114 0.000000
						}
					}
				}
			}
			JOINT Right_ShortSleeve
			{
				OFFSET -0.265923 -10.480953 1.153800
				CHANNELS 3 Xrotation Yrotation Zrotation
				End Site
				{
					OFFSET -1.725766 19.823910 0.000000
				}
			}
		}
	}
	JOINT Spine
	{
		OFFSET 0.000000 13.368103 0.470500
		CHANNELS 3 Xrotation Yrotation Zrotation
		JOINT Spine1
		{
			OFFSET 0.147000 13.837402 0.538800
			CHANNELS 3 Xrotation Yrotation Zrotation
			JOINT Spine2
			{
				OFFSET 0.168000 16.242897 -1.435500
				CHANNELS 3 Xrotation Yrotation Zrotation
				JOINT Neck
				{
					OFFSET 0.217200 18.631500 -1.679100
					CHANNELS 3 Xrotation Yrotation Zrotation
					JOINT Head
					{
						OFFSET 0.000000 6.599396 1.385900
						CHANNELS 3 Xrotation Yrotation Zrotation
						JOINT Hat
						{
							OFFSET -0.532200 27.220596 -10.096100
							CHANNELS 3 Xrotation Yrotation Zrotation
							End Site
							{
								OFFSET 0.000000 22.029861 0.000000
							}
						}
						JOINT HairD
						{
							OFFSET -10.777400 17.437393 -1.325900
							CHANNELS 3 Xrotation Yrotation Zrotation
							JOINT HairD1
							{
								OFFSET -3.290299 -11.051193 1.062200
								CHANNELS 3 Xrotation Yrotation Zrotation
								End Site
								{
									OFFSET 0.000000 11.579437 0.000000
								}
							}
						}
						JOINT HairB
						{
							OFFSET -10.777400 17.437393 1.467900
							CHANNELS 3 Xrotation Yrotation Zrotation
							JOINT HairB1
							{
								OFFSET -1.561200 -12.956299 3.590200
								CHANNELS 3 Xrotation Yrotation Zrotation
								End Site
								{
									OFFSET 0.000000 13.534866 0.000000
								}
							}
						}
						JOINT HairA
						{
							OFFSET 9.713100 17.437393 1.467900
							CHANNELS 3 Xrotation Yrotation Zrotation
							JOINT HairA1
							{
								OFFSET 1.561200 -12.956299 3.590200
								CHANNELS 3 Xrotation Yrotation Zrotation
								End Site
								{
									OFFSET 0.000000 13.534866 0.000000
								}
							}
						}
						JOINT HairC
						{
							OFFSET 9.713100 17.437393 -1.325900
							CHANNELS 3 Xrotation Yrotation Zrotation
							JOINT HairC1
							{
								OFFSET 3.290300 -11.051193 1.062200
								CHANNELS 3 Xrotation Yrotation Zrotation
								End Site
								{
									OFFSET 0.000000 11.579437 0.000000
								}
							}
						}
					}
				}
				JOINT LeftShoulder
				{
					OFFSET 5.101800 15.108002 -2.763700
					CHANNELS 3 Xrotation Yrotation Zrotation
					JOINT LeftArm
					{
						OFFSET 9.825497 2.506317 -1.597400
						CHANNELS 3 Xrotation Yrotation Zrotation
						JOINT LeftForeArm
						{
							OFFSET 21.966244 0.000000 0.000000
							CHANNELS 3 Xrotation Yrotation Zrotation
							JOINT LeftHand
							{
								OFFSET 33.879036 0.000000 0.000000
								CHANNELS 3 Xrotation Yrotation Zrotation
								JOINT LeftHandThumb1
								{
									OFFSET 6.715286 -2.359680 3.363841
									CHANNELS 3 Xrotation Yrotation Zrotation
									JOINT LeftHandThumb2
									{
										OFFSET 2.507072 -1.447464 1.447461
										CHANNELS 3 Xrotation Yrotation Zrotation
										JOINT LeftHandThumb3
										{
											OFFSET 2.898338 -1.673355 1.673357
											CHANNELS 3 Xrotation Yrotation Zrotation
											End Site
											{
												OFFSET -0.295959 3.727692 -0.131651
											}
										}
									}
								}
								JOINT LeftHandIndex1
								{
									OFFSET 14.190811 -0.254547 3.840278
									CHANNELS 3 Xrotation Yrotation Zrotation
									JOINT LeftHandIndex2
									{
										OFFSET 3.551727 0.000000 -0.000000
										CHANNELS 3 Xrotation Yrotation Zrotation
										JOINT LeftHandIndex3
										{
											OFFSET 2.894196 0.000000 0.000000
											CHANNELS 3 Xrotation Yrotation Zrotation
											End Site
											{
												OFFSET -1.000603 2.690872 0.366626
											}
										}
									}
								}
								JOINT LeftHandMiddle1
								{
									OFFSET 13.776489 0.000000 0.000000
									CHANNELS 3 Xrotation Yrotation Zrotation
									JOINT LeftHandMiddle2
									{
										OFFSET 3.438232 0.000000 0.000000
										CHANNELS 3 Xrotation Yrotation Zrotation
										JOINT LeftHandMiddle3
										{
											OFFSET 3.691551 0.000000 0.000000
											CHANNELS 3 Xrotation Yrotation Zrotation
											End Site
											{
												OFFSET -1.082298 3.499527 0.457670
											}
										}
									}
								}
								JOINT LeftHandRing1
								{
									OFFSET 13.966164 -0.268127 -3.067488
									CHANNELS 3 Xrotation Yrotation Zrotation
									JOINT LeftHandRing2
									{
										OFFSET 3.162567 0.000000 0.000000
										CHANNELS 3 Xrotation Yrotation Zrotation
										JOINT LeftHandRing3
										{
											OFFSET 3.324348 0.000000 0.000000
											CHANNELS 3 Xrotation Yrotation Zrotation
											End Site
											{
												OFFSET -0.861900 3.184998 0.405154
											}
										}
									}
								}
								JOINT LeftHandPinky1
								{
									OFFSET 13.131393 -0.168503 -5.746925
									CHANNELS 3 Xrotation Yrotation Zrotation
									JOINT LeftHandPinky2
									{
										OFFSET 2.849182 0.000000 0.000000
										CHANNELS 3 Xrotation Yrotation Zrotation
										JOINT LeftHandPinky3
										{
											OFFSET 2.805038 0.000000 0.000000
											CHANNELS 3 Xrotation Yrotation Zrotation
											End Site
											{
												OFFSET -0.882500 2.642609 0.325652
											}
										}
									}
								}
							}
							JOINT Left_Sleeve
							{
								OFFSET 6.592125 -0.646545 0.805568
								CHANNELS 3 Xrotation Yrotation Zrotation
								End Site
								{
									OFFSET -0.000179 20.275787 -0.000000
								}
							}
						}
					}
				}
				JOINT RightShoulder
				{
					OFFSET -5.731700 15.108002 -2.763700
					CHANNELS 3 Xrotation Yrotation Zrotation
					JOINT RightArm
					{
						OFFSET -9.825497 2.506317 -1.597400
						CHANNELS 3 Xrotation Yrotation Zrotation
						JOINT RightForeArm
						{
							OFFSET -21.966242 0.000000 0.000000
							CHANNELS 3 Xrotation Yrotation Zrotation
							JOINT RightHand
							{
								OFFSET -33.879032 0.000000 0.000000
								CHANNELS 3 Xrotation Yrotation Zrotation
								JOINT RightHandThumb1
								{
									OFFSET -6.715286 -2.359680 3.363841
									CHANNELS 3 Xrotation Yrotation Zrotation
									JOINT RightHandThumb2
									{
										OFFSET -2.507072 -1.447464 1.447461
										CHANNELS 3 Xrotation Yrotation Zrotation
										JOINT RightHandThumb3
										{
											OFFSET -2.898338 -1.673355 1.673357
											CHANNELS 3 Xrotation Yrotation Zrotation
											End Site
											{
												OFFSET 0.295959 3.727692 -0.131651
											}
										}
									}
								}
								JOINT RightHandIndex1
								{
									OFFSET -14.190811 -0.254547 3.840278
									CHANNELS 3 Xrotation Yrotation Zrotation
									JOINT RightHandIndex2
									{
										OFFSET -3.551727 0.000000 -0.000000
										CHANNELS 3 Xrotation Yrotation Zrotation
										JOINT RightHandIndex3
										{
											OFFSET -2.894196 0.000000 0.000000
											CHANNELS 3 Xrotation Yrotation Zrotation
											End Site
											{
												OFFSET 1.000603 2.690872 0.366626
											}
										}
									}
								}
								JOINT RightHandMiddle1
								{
									OFFSET -13.776489 0.000000 0.000000
									CHANNELS 3 Xrotation Yrotation Zrotation
									JOINT RightHandMiddle2
									{
										OFFSET -3.438232 0.000000 0.000000
										CHANNELS 3 Xrotation Yrotation Zrotation
										JOINT RightHandMiddle3
										{
											OFFSET -3.691551 0.000000 0.000000
											CHANNELS 3 Xrotation Yrotation Zrotation
											End Site
											{
												OFFSET 1.082298 3.499527 0.457670
											}
										}
									}
								}
								JOINT RightHandRing1
								{
									OFFSET -13.966164 -0.268127 -3.067488
									CHANNELS 3 Xrotation Yrotation Zrotation
									JOINT RightHandRing2
									{
										OFFSET -3.162567 0.000000 0.000000
										CHANNELS 3 Xrotation Yrotation Zrotation
										JOINT RightHandRing3
										{
											OFFSET -3.324348 0.000000 0.000000
											CHANNELS 3 Xrotation Yrotation Zrotation
											End Site
											{
												OFFSET 0.861900 3.184998 0.405154
											}
										}
									}
								}
								JOINT RightHandPinky1
								{
									OFFSET -13.131393 -0.168503 -5.746925
									CHANNELS 3 Xrotation Yrotation Zrotation
									JOINT RightHandPinky2
									{
										OFFSET -2.849182 0.000000 0.000000
										CHANNELS 3 Xrotation Yrotation Zrotation
										JOINT RightHandPinky3
										{
											OFFSET -2.805038 0.000000 0.000000
											CHANNELS 3 Xrotation Yrotation Zrotation
											End Site
											{
												OFFSET 0.882500 2.642609 0.325652
											}
										}
									}
								}
							}
							JOINT Right_Sleeve
							{
								OFFSET -6.592125 -0.646545 0.805568
								CHANNELS 3 Xrotation Yrotation Zrotation
								End Site
								{
									OFFSET 0.000179 20.275787 -0.000000
								}
							}
						}
					}
				}
				JOINT Bind_Right_JacketString
				{
					OFFSET -3.534800 11.969597 7.200700
					CHANNELS 3 Xrotation Yrotation Zrotation
					JOINT Bind_Right_JacketString1
					{
						OFFSET -0.319900 -6.102600 2.794100
						CHANNELS 3 Xrotation Yrotation Zrotation
						End Site
						{
							OFFSET 0.000000 6.719452 0.000000
						}
					}
				}
				JOINT Bind_Left_JacketString
				{
					OFFSET 2.904800 11.969597 7.200700
					CHANNELS 3 Xrotation Yrotation Zrotation
					JOINT Bind_Left_JacketString1
					{
						OFFSET 0.364800 -5.904503 3.186800
						CHANNELS 3 Xrotation Yrotation Zrotation
						End Site
						{
							OFFSET 0.000000 6.719513 0.000000
						}
					}
				}
				JOINT HairE
				{
					OFFSET 5.915200 17.612701 -11.592200
					CHANNELS 3 Xrotation Yrotation Zrotation
					JOINT HairE1
					{
						OFFSET 0.289200 -7.171898 -1.284500
						CHANNELS 3 Xrotation Yrotation Zrotation
						End Site
						{
							OFFSET 0.000000 7.291756 0.000000
						}
					}
				}
				JOINT HairF
				{
					OFFSET -0.864800 17.612701 -11.592200
					CHANNELS 3 Xrotation Yrotation Zrotation
					JOINT HairF1
					{
						OFFSET 0.000000 -14.087097 -2.127501
						CHANNELS 3 Xrotation Yrotation Zrotation
						End Site
						{
							OFFSET 0.000000 14.246841 0.000000
						}
					}
				}
				JOINT HairG
				{
					OFFSET -8.087700 17.612701 -11.592200
					CHANNELS 3 Xrotation Yrotation Zrotation
					JOINT HairG1
					{
						OFFSET -0.293600 -6.081398 -0.910100
						CHANNELS 3 Xrotation Yrotation Zrotation
						End Site
						{
							OFFSET 0.000000 6.156120 0.000000
						}
					}
				}
			}
		}
	}
	JOINT Pouch
	{
		OFFSET 0.000000 4.394501 10.847300
		CHANNELS 3 Xrotation Yrotation Zrotation
		End Site
		{
			OFFSET 0.000000 21.880577 0.000000
		}
	}
	JOINT Bag
	{
		OFFSET -13.229000 4.813004 -0.593300
		CHANNELS 3 Xrotation Yrotation Zrotation
		End Site
		{
			OFFSET 0.000000 21.880577 0.000000
		}
	}
	JOINT OccupyGuyFacialAnim_Joint
	{
		OFFSET 1.000000 -70.206398 -1.655000
		CHANNELS 3 Xrotation Yrotation Zrotation
		End Site
		{
			OFFSET 0.000000 21.880577 0.000000
		}
	}
}
MOTION
Frames: 4
Frame Time: 0.033333
5.661231 67.885971 -87.929062 3.906851 12.462688 0.736795 -0.000000 0.000000 0.000000 -28.258414 4.131924 2.300245 59.002582 -1.779270 3.533651 -17.405709 2.479150 -11.805409 0.000002 0.000001 -0.000000 -0.000001 0.000002 0.000000 -27.211846 -3.500725 -1.228955 11.507175 -9.867159 6.208317 7.452866 -21.583203 -10.649561 0.000000 -0.000002 0.000000 -0.000004 0.000000 -0.000000 17.902370 6.512687 -0.467098 4.107676 1.703136 0.729523 4.124978 1.632440 0.612675 2.417140 -2.009701 1.029164 -14.828226 -25.476076 11.324193 0.000002 0.000001 0.000001 0.000002 0.000001 0.000001 0.000002 0.000001 0.000001 0.000002 0.000001 0.000001 -0.000000 0.000001 0.000000 0.000002 0.000001 0.000001 -0.000000 0.000001 0.000000 0.000002 0.000001 0.000001 0.000002 0.000001 0.000001 17.875321 -11.359816 -8.460990 -4.327286 0.499529 -62.345557 0.000006 -7.682611 -0.000005 34.815605 11.508670 -8.243082 4.335244 5.394167 6.015643 15.221573 9.120263 7.739224 0.000004 -0.000000 0.000002 0.308952 -1.509031 -14.235076 0.729795 2.833547 -28.880782 0.000002 -0.000002 -0.000002 0.103864 3.933909 -28.749806 0.740671 2.853182 -29.100216 0.000005 0.000000 0.000001 1.969949 6.840520 -36.950538 0.612146 2.609136 -26.402918 -0.000003 0.000001 -0.000001 -1.498607 13.597586 -45.454407 0.642387 2.669161 -27.060014 -0.000002 -0.000001 0.000001 -0.000000 0.000001 0.000001 0.831186 26.877570 3.235113 -39.094927 -2.677566 55.230976 0.000002 16.947952 -0.000001 14.115242 15.510443 -10.332845 2.058735 -1.918623 -7.446985 16.441177 -19.783768 -5.184698 0.000002 0.000000 -0.000000 0.517635 2.695359 15.725273 1.200822 -3.123242 42.053157 0.000003 -0.000001 0.000000 -1.217654 -1.637248 32.441855 1.798608 -3.678192 52.104948 0.000002 -0.000001 0.000001 -1.023373 -3.472719 48.991513 3.078163 -4.381880 70.161076 -0.000001 0.000002 0.000000 -0.110883 -4.787000 47.447770 4.813897 -4.654531 91.930316 0.000003 0.000001 -0.000001 0.000005 -0.000001 0.000001 0.000002 -0.000001 0.000001 -0.000000 0.000001 -0.000000 0.000002 -0.000001 0.000001 0.000002 -0.000001 0.000001 0.000002 -0.000001 0.000001 -0.000000 0.000001 -0.000000 0.000002 -0.000001 0.000001 0.000002 -0.000001 0.000001 0.000002 -0.000001 0.000001 -0.000000 0.000001 -0.000000 -0.000000 0.000000 0.000000 -0.000000 0.000000 0.000000 -0.000000 0.000000 0.000000 
5.873406 67.106033 -90.596031 4.623636 12.197276 0.190785 -0.000000 0.000000 -0.000000 -21.849970 5.820345 -0.191365 53.446425 -0.404750 3.581989 -23.411809 1.131489 -2.527150 -0.000000 0.000001 -0.000000 0.000001 0.000000 -0.000000 -28.666348 -3.032277 -1.350446 7.706180 -9.888178 6.211137 12.002219 -22.379707 -10.709557 -0.000000 0.000000 0.000000 -0.000000 -0.000002 -0.000000 17.899726 5.521611 1.209987 4.130872 1.374059 0.938772 4.150586 1.310741 0.873584 2.294541 -1.889463 1.171831 -16.749311 -23.677025 9.876940 0.000001 0.000000 -0.000000 0.000001 0.000000 -0.000000 0.000001 0.000000 0.000000 0.000001 0.000000 0.000000 -0.000001 0.000001 -0.000000 0.000001 0.000000 0.000000 -0.000001 0.000001 -0.000000 0.000001 0.000000 -0.000000 0.000001 0.000000 -0.000000 18.960410 -10.991322 -9.062514 -2.432504 -1.071623 -62.719605 0.000009 -5.870831 0.000007 38.343186 12.591533 -13.333723 4.335246 5.394169 6.015642 15.221582 9.120263 7.739222 0.000001 0.000002 -0.000004 0.398397 -1.046596 -18.835806 0.927999 3.165915 -32.666817 -0.000002 -0.000002 0.000003 0.263767 4.423802 -33.477373 0.934725 3.176357 -32.788265 0.000002 0.000000 -0.000001 2.349757 7.143145 -41.747165 0.804517 2.964819 -30.358046 0.000002 0.000001 -0.000002 -0.819028 13.351809 -50.191334 0.831571 3.010444 -30.876857 0.000003 0.000000 -0.000002 0.000000 -0.000003 0.000000 1.933142 25.852136 3.779606 -38.437818 3.656205 56.064061 0.000004 18.751888 -0.000000 15.140771 20.192549 -6.182868 1.378077 -2.647352 -8.106091 16.496242 -20.595816 -5.259748 0.000001 -0.000001 0.000004 0.382524 2.134028 18.523347 1.742090 -3.633570 51.218199 -0.000001 0.000002 0.000001 -1.110854 -2.082267 34.926029 2.436285 -4.094524 61.491852 -0.000000 0.000000 -0.000004 -0.990377 -3.690257 51.337143 3.800839 -4.577934 79.393067 0.000001 -0.000001 -0.000001 -0.486330 -4.353131 49.563715 5.304424 -4.612077 97.997300 -0.000002 0.000003 0.000001 0.000002 0.000001 0.000000 -0.000001 0.000001 -0.000001 -0.000001 0.000001 -0.000001 -0.000001 0.000001 -0.000001 -0.000001 0.000001 -0.000001 -0.000001 0.000001 -0.000001 -0.000001 0.000001 -0.000001 -0.000001 0.000001 -0.000001 -0.000001 0.000001 -0.000001 -0.000001 0.000001 -0.000001 -0.000001 0.000001 -0.000001 -0.000000 0.000000 -0.000000 -0.000000 0.000000 -0.000000 -0.000000 0.000000 -0.000000 
6.042737 66.117577 -93.353340 5.351999 10.388098 -0.035935 -0.000000 -0.000001 0.000000 -17.835384 6.557891 -1.401532 45.961658 0.456701 3.569269 -30.354488 0.724289 -1.403234 0.000000 -0.000002 0.000000 -0.000001 -0.000002 -0.000000 -31.503865 -2.447724 -1.258821 5.959190 -9.828464 6.208647 16.081276 -21.316448 -9.662674 0.000000 0.000000 -0.000000 -0.000001 0.000000 -0.000000 18.237150 4.671961 2.152755 4.273037 1.113848 1.107944 4.294646 1.060243 1.077942 2.136138 -1.714751 1.308109 -19.242391 -20.981006 7.409231 0.000001 0.000000 -0.000000 0.000001 0.000000 -0.000000 0.000001 0.000000 0.000000 0.000001 0.000000 0.000000 -0.000000 -0.000000 0.000001 0.000001 0.000000 0.000000 -0.000000 -0.000000 0.000001 0.000001 0.000000 -0.000000 0.000001 0.000000 -0.000000 19.641686 -10.859171 -9.571878 -1.219286 -1.698482 -63.592012 -0.000007 -4.836246 0.000002 41.622872 13.123709 -17.981407 4.335244 5.394172 6.015642 15.221572 9.120265 7.739222 -0.000002 -0.000000 0.000002 0.515486 -0.613021 -23.584887 1.150930 3.488690 -36.506415 0.000004 0.000001 0.000002 0.464520 4.898100 -38.230399 1.150877 3.488630 -36.505384 -0.000001 0.000004 0.000005 2.743626 7.408522 -46.420582 1.027223 3.315382 -34.422115 0.000003 -0.000001 -0.000001 -0.258279 13.039578 -54.629257 1.040012 3.333890 -34.642364 -0.000001 -0.000002 0.000001 -0.000001 -0.000000 -0.000001 2.965500 24.861293 4.415191 -37.905873 10.738762 56.866891 0.000000 21.000335 -0.000016 15.267339 24.677327 -2.438921 0.814550 -3.232615 -8.660191 16.540874 -21.263385 -5.321104 -0.000000 -0.000001 -0.000001 0.295403 1.576232 21.257436 2.372811 -4.059503 60.599501 -0.000002 0.000005 -0.000004 -0.983795 -2.492242 37.255106 3.119927 -4.396673 70.706371 0.000002 0.000001 0.000003 -0.950067 -3.886001 53.421505 4.499569 -4.654515 88.058508 0.000003 -0.000000 -0.000001 -0.819538 -4.022614 51.308753 5.703857 -4.538264 103.002039 0.000001 0.000000 -0.000001 -0.000001 -0.000001 -0.000002 -0.000001 0.000001 -0.000000 0.000001 0.000000 -0.000000 -0.000001 0.000001 -0.000000 -0.000001 0.000001 -0.000000 -0.000001 0.000001 -0.000000 0.000001 0.000000 -0.000000 -0.000001 0.000001 -0.000000 -0.000001 0.000001 -0.000000 -0.000001 0.000001 -0.000000 0.000001 0.000000 -0.000000 -0.000000 -0.000001 0.000000 -0.000000 -0.000001 0.000000 -0.000000 -0.000001 0.000000 
6.145956 64.876732 -96.413704 6.073706 7.660184 -0.170929 -0.000000 -0.000001 0.000000 -22.592415 8.200775 -1.309656 49.312822 2.592283 3.531341 -32.863250 0.733600 -1.418788 0.000000 -0.000002 0.000000 -0.000003 -0.000002 -0.000001 -38.722873 -2.040038 -1.230703 12.031921 -9.222519 6.197337 17.247949 -18.444531 -4.810326 -0.000000 0.000000 -0.000000 -0.000002 -0.000000 -0.000000 19.613252 3.896075 2.471066 4.568139 0.870949 1.247318 4.583165 0.836648 1.235072 1.935512 -1.506516 1.436377 -23.170305 -17.771633 4.556827 0.000001 -0.000000 -0.000001 0.000001 -0.000000 -0.000001 0.000001 -0.000000 -0.000001 0.000001 -0.000000 -0.000001 0.000000 0.000001 -0.000001 0.000001 -0.000000 -0.000001 0.000000 0.000001 -0.000001 0.000001 -0.000000 -0.000001 0.000001 -0.000000 -0.000001 19.865170 -10.972915 -9.960243 -1.488320 -1.639230 -64.634640 0.000000 -4.443900 0.000003 44.466782 13.242150 -21.998651 4.335250 5.394170 6.015641 15.221572 9.120265 7.739222 0.000003 -0.000001 -0.000000 0.650820 -0.225213 -28.312398 1.388590 3.788171 -40.250148 -0.000002 -0.000001 -0.000000 0.695083 5.336939 -42.832164 1.379186 3.777056 -40.107335 -0.000000 0.000003 0.000003 3.131128 7.628679 -50.786838 1.268387 3.641762 -38.395003 -0.000000 0.000002 -0.000001 0.165753 12.685680 -58.569173 1.252900 3.622152 -38.150401 0.000003 -0.000001 -0.000001 0.000000 0.000002 -0.000001 3.887252 23.929276 5.127465 -38.286359 18.459771 57.437199 -0.000010 24.124214 0.000016 14.603136 28.646435 0.880271 0.403940 -3.648884 -9.068615 16.572867 -21.747150 -5.365396 0.000002 0.000000 -0.000003 0.254387 1.048491 23.815358 3.051271 -4.372092 69.808659 0.000001 0.000002 -0.000001 -0.849153 -2.849615 39.325593 3.798006 -4.577403 79.357755 0.000007 -0.000003 0.000002 -0.908790 -4.048659 55.140356 5.124535 -4.633704 95.765755 -0.000000 -0.000002 -0.000000 -1.074215 -3.798514 52.576740 5.989383 -4.462965 106.639190 0.000002 -0.000001 -0.000003 0.000003 0.000002 0.000000 -0.000001 0.000000 -0.000000 -0.000001 -0.000001 0.000000 -0.000001 0.000000 0.000000 -0.000001 0.000000 0.000000 -0.000001 0.000000 -0.000000 -0.000001 -0.000001 0.000000 -0.000001 0.000000 0.000000 -0.000001 0.000000 0.000000 -0.000001 0.000000 -0.000000 -0.000001 -0.000001 0.000000 -0.000000 -0.000001 0.000000 -0.000000 -0.000001 0.000000 -0.000000 -0.000001 0.000000 
